<svg xmlns="http://www.w3.org/2000/svg" width="145" height="168" fill="none" viewBox="0 0 164 167" class="cart-empty--image mx-auto"><path stroke="#98A2B3" strokeLinecap="round" strokeLinejoin="round" d="M80.08 81.781c14.593-.243 14.326.244 28.919 0"></path><path fill="#98A2B3" d="M66.299 56.087c-.177 2.149 1.285 4.139 3.284 4.875 1.998.736 4.447-.204 5.555-2.103 1.109-1.898.777-4.383-.649-5.764-2.852-2.762-7.935-.932-8.24 3.178l.05-.186ZM112.942 56.087c-.177 2.149 1.285 4.139 3.284 4.875 1.998.736 4.447-.204 5.555-2.103 1.109-1.898.778-4.383-.649-5.764-2.852-2.762-7.935-.932-8.24 3.178l.05-.186Z"></path><path stroke="#98A2B3" strokeLinecap="round" strokeLinejoin="round" d="M1 1H.796c5.542 0 10.32 3.534 11.966 8.834l35.98 117.734c.682 2.209 2.69 3.734 5.019 3.734h88.541"></path><path stroke="#98A2B3" strokeLinecap="round" strokeLinejoin="round" d="M45.007 115.361h88.099c5.542 0 10.481-3.735 12.007-9.035l17.708-61.517a12.495 12.495 0 0 0-1.807-10.682c-2.209-3.132-5.662-5.019-9.477-5.26l-135.241-7.75"></path><path fill="#98A2B3" d="M56.17 165.434c-7.028 0-12.77-5.742-12.77-12.769s5.742-12.769 12.77-12.769c7.027 0 12.769 5.742 12.769 12.769s-5.742 12.769-12.77 12.769ZM125.116 165.434c-7.027 0-12.769-5.742-12.769-12.769s5.742-12.769 12.769-12.769 12.769 5.742 12.769 12.769-5.742 12.769-12.769 12.769Z"></path><path stroke="#98A2B3" strokeLinecap="round" strokeMiterlimit="10" d="M37.143 165.675H146.62"></path></svg>